<?xml version="1.0" encoding="UTF-8" standalone="no"?>
<svg xmlns="http://www.w3.org/2000/svg" width="100" height="100" viewBox="0 0 100 100">
  <!-- Grundform des Rucksacks -->
  <path d="M70,30 L70,80 C70,85 65,90 60,90 L40,90 C35,90 30,85 30,80 L30,30 Z" 
        fill="#4287f5" stroke="#2c3e50" stroke-width="3"/>
  
  <!-- Tasche oben -->
  <path d="M30,30 L30,20 C30,15 35,10 40,10 L60,10 C65,10 70,15 70,20 L70,30 Z" 
        fill="#3273dc" stroke="#2c3e50" stroke-width="3"/>
  
  <!-- Seitentaschen -->
  <rect x="27" y="40" width="10" height="15" rx="2" ry="2" 
        fill="#6ca0fc" stroke="#2c3e50" stroke-width="2"/>
  <rect x="63" y="40" width="10" height="15" rx="2" ry="2" 
        fill="#6ca0fc" stroke="#2c3e50" stroke-width="2"/>
  
  <!-- Reißverschluss -->
  <line x1="50" y1="30" x2="50" y2="75" stroke="#2c3e50" stroke-width="2" stroke-dasharray="4 2"/>
  
  <!-- Vordertasche -->
  <path d="M40,55 L60,55 L60,75 C60,78 57,80 55,80 L45,80 C43,80 40,78 40,75 Z" 
        fill="#5998ff" stroke="#2c3e50" stroke-width="2"/>
  
  <!-- Stift in der Vordertasche -->
  <line x1="45" y1="60" x2="45" y2="75" stroke="#e74c3c" stroke-width="3" stroke-linecap="round"/>
  <line x1="50" y1="58" x2="50" y2="75" stroke="#3498db" stroke-width="3" stroke-linecap="round"/>
  <line x1="55" y1="62" x2="55" y2="75" stroke="#2ecc71" stroke-width="3" stroke-linecap="round"/>
  
  <!-- Haken oben -->
  <path d="M45,10 C45,5 55,5 55,10" stroke="#2c3e50" stroke-width="3" fill="none"/>
  
  <!-- Checkmark als Zeichen für die Checkliste -->
  <circle cx="80" cy="20" r="15" fill="#27ae60" stroke="#2c3e50" stroke-width="2"/>
  <path d="M70,20 L77,27 L90,14" stroke="white" stroke-width="4" fill="none" stroke-linecap="round" stroke-linejoin="round"/>
</svg>